<?xml version="1.0" encoding="UTF-8" standalone="no"?>
<!DOCTYPE svg PUBLIC "-//W3C//DTD SVG 1.1//EN"
 "http://www.w3.org/Graphics/SVG/1.1/DTD/svg11.dtd">
<!-- Generated by graphviz version 12.2.1 (20241206.2353)
 -->
<!-- Title: G Pages: 1 -->
<svg width="1385pt" height="1402pt"
 viewBox="0.00 0.00 1385.39 1402.38" xmlns="http://www.w3.org/2000/svg" xmlns:xlink="http://www.w3.org/1999/xlink">
<g id="graph0" class="graph" transform="scale(1 1) rotate(0) translate(4 1398.38)">
<title>G</title>
<polygon fill="black" stroke="none" points="-4,4 -4,-1398.38 1381.39,-1398.38 1381.39,4 -4,4"/>
<!-- 0 -->
<g id="node1" class="node">
<title>0</title>
<ellipse fill="none" stroke="black" stroke-width="3" cx="603.62" cy="-354.24" rx="27" ry="25.81"/>
<text text-anchor="middle" x="603.62" y="-344.74" font-family="Times,serif" font-size="25.00">0</text>
</g>
<!-- 1 -->
<g id="node2" class="node">
<title>1</title>
<ellipse fill="none" stroke="black" stroke-width="3" cx="674.83" cy="-122.33" rx="27" ry="25.81"/>
<text text-anchor="middle" x="674.83" y="-112.83" font-family="Times,serif" font-size="25.00">1</text>
</g>
<!-- 0&#45;&gt;1 -->
<g id="edge1" class="edge">
<title>0&#45;&gt;1</title>
<path fill="none" stroke="black" stroke-width="3" d="M611.65,-328.09C624.08,-287.61 648.06,-209.53 662.63,-162.06"/>
<polygon fill="black" stroke="black" stroke-width="3" points="665.91,-163.31 665.5,-152.72 659.22,-161.26 665.91,-163.31"/>
</g>
<!-- 2024 -->
<g id="node3" class="node">
<title>2024</title>
<ellipse fill="none" stroke="black" stroke-width="3" cx="513.73" cy="-245.27" rx="47.38" ry="25.81"/>
<text text-anchor="middle" x="513.73" y="-235.77" font-family="Times,serif" font-size="25.00">2024</text>
</g>
<!-- 1&#45;&gt;2024 -->
<g id="edge2" class="edge">
<title>1&#45;&gt;2024</title>
<path fill="none" stroke="black" stroke-width="3" d="M652.77,-139.16C627.4,-158.52 585.24,-190.7 553.98,-214.55"/>
<polygon fill="black" stroke="black" stroke-width="3" points="552.03,-211.64 546.21,-220.49 556.28,-217.21 552.03,-211.64"/>
</g>
<!-- 20 -->
<g id="node4" class="node">
<title>20</title>
<ellipse fill="none" stroke="black" stroke-width="3" cx="415.56" cy="-416.29" rx="29.34" ry="25.81"/>
<text text-anchor="middle" x="415.56" y="-406.79" font-family="Times,serif" font-size="25.00">20</text>
</g>
<!-- 2024&#45;&gt;20 -->
<g id="edge3" class="edge">
<title>2024&#45;&gt;20</title>
<path fill="none" stroke="black" stroke-width="3" d="M498.82,-271.25C482.28,-300.07 455.44,-346.82 436.73,-379.43"/>
<polygon fill="black" stroke="black" stroke-width="3" points="433.7,-377.66 431.76,-388.08 439.77,-381.15 433.7,-377.66"/>
</g>
<!-- 24 -->
<g id="node5" class="node">
<title>24</title>
<ellipse fill="none" stroke="black" stroke-width="3" cx="605.38" cy="-512.88" rx="29.34" ry="25.81"/>
<text text-anchor="middle" x="605.38" y="-503.38" font-family="Times,serif" font-size="25.00">24</text>
</g>
<!-- 2024&#45;&gt;24 -->
<g id="edge4" class="edge">
<title>2024&#45;&gt;24</title>
<path fill="none" stroke="black" stroke-width="3" d="M532.7,-270.04C543.06,-285.38 554.65,-306.03 558.9,-326.58 568.61,-373.45 546.97,-387.23 556.02,-434.23 558.04,-444.75 560.33,-447.01 565.56,-456.36 569.77,-463.87 574.75,-471.61 579.73,-478.87"/>
<polygon fill="black" stroke="black" stroke-width="3" points="576.71,-480.66 585.36,-486.78 582.42,-476.6 576.71,-480.66"/>
</g>
<!-- 20&#45;&gt;0 -->
<g id="edge6" class="edge">
<title>20&#45;&gt;0</title>
<path fill="none" stroke="black" stroke-width="3" d="M444.13,-406.87C475.96,-396.36 527.68,-379.3 563.56,-367.46"/>
<polygon fill="black" stroke="black" stroke-width="3" points="564.21,-370.93 572.61,-364.47 562.02,-364.28 564.21,-370.93"/>
</g>
<!-- 2 -->
<g id="node6" class="node">
<title>2</title>
<ellipse fill="none" stroke="black" stroke-width="3" cx="399.99" cy="-625.65" rx="27" ry="25.81"/>
<text text-anchor="middle" x="399.99" y="-616.15" font-family="Times,serif" font-size="25.00">2</text>
</g>
<!-- 20&#45;&gt;2 -->
<g id="edge5" class="edge">
<title>20&#45;&gt;2</title>
<path fill="none" stroke="black" stroke-width="3" d="M423.85,-442.38C429.99,-464.59 436.9,-497.41 434.52,-526.41 432.78,-547.46 425.55,-569.77 418.16,-587.89"/>
<polygon fill="black" stroke="black" stroke-width="3" points="414.99,-586.39 414.23,-596.96 421.41,-589.18 414.99,-586.39"/>
</g>
<!-- 24&#45;&gt;2 -->
<g id="edge36" class="edge">
<title>24&#45;&gt;2</title>
<path fill="none" stroke="black" stroke-width="3" d="M578.77,-525.91C559.46,-535.5 532.78,-548.99 509.72,-561.58 484.86,-575.15 457.35,-591.22 436.09,-603.87"/>
<polygon fill="black" stroke="black" stroke-width="3" points="434.42,-600.79 427.63,-608.92 438.01,-606.79 434.42,-600.79"/>
</g>
<!-- 4 -->
<g id="node10" class="node">
<title>4</title>
<ellipse fill="none" stroke="black" stroke-width="3" cx="746.63" cy="-297.14" rx="27" ry="25.81"/>
<text text-anchor="middle" x="746.63" y="-287.64" font-family="Times,serif" font-size="25.00">4</text>
</g>
<!-- 24&#45;&gt;4 -->
<g id="edge37" class="edge">
<title>24&#45;&gt;4</title>
<path fill="none" stroke="black" stroke-width="3" d="M620.77,-489.38C645.63,-451.41 694.76,-376.36 723.74,-332.1"/>
<polygon fill="black" stroke="black" stroke-width="3" points="726.66,-334.04 729.2,-323.75 720.8,-330.2 726.66,-334.04"/>
</g>
<!-- 4048 -->
<g id="node7" class="node">
<title>4048</title>
<ellipse fill="none" stroke="black" stroke-width="3" cx="357.15" cy="-330.54" rx="47.38" ry="25.81"/>
<text text-anchor="middle" x="357.15" y="-321.04" font-family="Times,serif" font-size="25.00">4048</text>
</g>
<!-- 2&#45;&gt;4048 -->
<g id="edge7" class="edge">
<title>2&#45;&gt;4048</title>
<path fill="none" stroke="black" stroke-width="3" d="M414.15,-601.95C424.42,-582.31 436.23,-553.35 434.52,-526.41 431.06,-472 399.15,-467.51 380.45,-416.29 375.17,-401.84 370.46,-385.63 366.69,-371.23"/>
<polygon fill="black" stroke="black" stroke-width="3" points="370.19,-370.8 364.35,-361.96 363.41,-372.51 370.19,-370.8"/>
</g>
<!-- 40 -->
<g id="node8" class="node">
<title>40</title>
<ellipse fill="none" stroke="black" stroke-width="3" cx="534.28" cy="-185.55" rx="29.34" ry="25.81"/>
<text text-anchor="middle" x="534.28" y="-176.05" font-family="Times,serif" font-size="25.00">40</text>
</g>
<!-- 4048&#45;&gt;40 -->
<g id="edge8" class="edge">
<title>4048&#45;&gt;40</title>
<path fill="none" stroke="black" stroke-width="3" d="M380.49,-307.05C403.55,-284.39 440.33,-249.71 475.1,-223.14 481.77,-218.05 489.14,-212.97 496.36,-208.27"/>
<polygon fill="black" stroke="black" stroke-width="3" points="498.16,-211.27 504.74,-202.96 494.42,-205.35 498.16,-211.27"/>
</g>
<!-- 48 -->
<g id="node9" class="node">
<title>48</title>
<ellipse fill="none" stroke="black" stroke-width="3" cx="523.78" cy="-326.58" rx="29.34" ry="25.81"/>
<text text-anchor="middle" x="523.78" y="-317.08" font-family="Times,serif" font-size="25.00">48</text>
</g>
<!-- 4048&#45;&gt;48 -->
<g id="edge9" class="edge">
<title>4048&#45;&gt;48</title>
<path fill="none" stroke="black" stroke-width="3" d="M405.8,-329.38C428.85,-328.84 456.22,-328.19 478.79,-327.65"/>
<polygon fill="black" stroke="black" stroke-width="3" points="478.74,-331.15 488.65,-327.42 478.57,-324.16 478.74,-331.15"/>
</g>
<!-- 40&#45;&gt;0 -->
<g id="edge11" class="edge">
<title>40&#45;&gt;0</title>
<path fill="none" stroke="black" stroke-width="3" d="M549.2,-209.08C555.64,-219.85 562.92,-232.93 568.37,-245.27 578.17,-267.48 586.65,-293.29 592.82,-314.22"/>
<polygon fill="black" stroke="black" stroke-width="3" points="589.44,-315.13 595.56,-323.78 596.17,-313.2 589.44,-315.13"/>
</g>
<!-- 40&#45;&gt;4 -->
<g id="edge10" class="edge">
<title>40&#45;&gt;4</title>
<path fill="none" stroke="black" stroke-width="3" d="M560.74,-199.45C598.06,-219.06 666.35,-254.95 708.95,-277.34"/>
<polygon fill="black" stroke="black" stroke-width="3" points="707.31,-280.43 717.79,-281.98 710.57,-274.23 707.31,-280.43"/>
</g>
<!-- 48&#45;&gt;4 -->
<g id="edge46" class="edge">
<title>48&#45;&gt;4</title>
<path fill="none" stroke="black" stroke-width="3" d="M553.84,-322.61C592.61,-317.49 660.27,-308.55 704.25,-302.74"/>
<polygon fill="black" stroke="black" stroke-width="3" points="704.5,-306.23 713.96,-301.45 703.58,-299.29 704.5,-306.23"/>
</g>
<!-- 8 -->
<g id="node14" class="node">
<title>8</title>
<ellipse fill="none" stroke="black" stroke-width="3" cx="588.6" cy="-434.23" rx="27" ry="25.81"/>
<text text-anchor="middle" x="588.6" y="-424.73" font-family="Times,serif" font-size="25.00">8</text>
</g>
<!-- 48&#45;&gt;8 -->
<g id="edge47" class="edge">
<title>48&#45;&gt;8</title>
<path fill="none" stroke="black" stroke-width="3" d="M538.17,-350.47C546.7,-364.65 557.68,-382.88 567.22,-398.72"/>
<polygon fill="black" stroke="black" stroke-width="3" points="563.98,-400.13 572.14,-406.89 569.98,-396.51 563.98,-400.13"/>
</g>
<!-- 8096 -->
<g id="node11" class="node">
<title>8096</title>
<ellipse fill="none" stroke="black" stroke-width="3" cx="930.82" cy="-255.8" rx="47.38" ry="25.81"/>
<text text-anchor="middle" x="930.82" y="-246.3" font-family="Times,serif" font-size="25.00">8096</text>
</g>
<!-- 4&#45;&gt;8096 -->
<g id="edge12" class="edge">
<title>4&#45;&gt;8096</title>
<path fill="none" stroke="black" stroke-width="3" d="M774.21,-290.95C799.82,-285.2 838.81,-276.45 871.48,-269.11"/>
<polygon fill="black" stroke="black" stroke-width="3" points="872.09,-272.57 881.08,-266.96 870.55,-265.74 872.09,-272.57"/>
</g>
<!-- 80 -->
<g id="node12" class="node">
<title>80</title>
<ellipse fill="none" stroke="black" stroke-width="3" cx="775.52" cy="-376.98" rx="29.34" ry="25.81"/>
<text text-anchor="middle" x="775.52" y="-367.48" font-family="Times,serif" font-size="25.00">80</text>
</g>
<!-- 8096&#45;&gt;80 -->
<g id="edge13" class="edge">
<title>8096&#45;&gt;80</title>
<path fill="none" stroke="black" stroke-width="3" d="M902.7,-277.74C876.54,-298.15 837.52,-328.61 809.6,-350.39"/>
<polygon fill="black" stroke="black" stroke-width="3" points="807.7,-347.43 801.97,-356.35 812,-352.95 807.7,-347.43"/>
</g>
<!-- 96 -->
<g id="node13" class="node">
<title>96</title>
<ellipse fill="none" stroke="black" stroke-width="3" cx="1021.72" cy="-432.68" rx="29.34" ry="25.81"/>
<text text-anchor="middle" x="1021.72" y="-423.18" font-family="Times,serif" font-size="25.00">96</text>
</g>
<!-- 8096&#45;&gt;96 -->
<g id="edge14" class="edge">
<title>8096&#45;&gt;96</title>
<path fill="none" stroke="black" stroke-width="3" d="M941.29,-282.02C951.45,-306.63 967.79,-344.21 984.92,-375.35 988.92,-382.63 993.5,-390.23 998.03,-397.43"/>
<polygon fill="black" stroke="black" stroke-width="3" points="994.94,-399.09 1003.3,-405.59 1000.82,-395.29 994.94,-399.09"/>
</g>
<!-- 80&#45;&gt;0 -->
<g id="edge16" class="edge">
<title>80&#45;&gt;0</title>
<path fill="none" stroke="black" stroke-width="3" d="M745.19,-372.97C717.6,-369.32 676.63,-363.9 645.85,-359.83"/>
<polygon fill="black" stroke="black" stroke-width="3" points="646.54,-356.39 636.16,-358.54 645.62,-363.33 646.54,-356.39"/>
</g>
<!-- 80&#45;&gt;8 -->
<g id="edge15" class="edge">
<title>80&#45;&gt;8</title>
<path fill="none" stroke="black" stroke-width="3" d="M746.73,-385.8C715.31,-395.42 664.79,-410.9 629.32,-421.76"/>
<polygon fill="black" stroke="black" stroke-width="3" points="628.49,-418.35 619.95,-424.63 630.54,-425.05 628.49,-418.35"/>
</g>
<!-- 6 -->
<g id="node25" class="node">
<title>6</title>
<ellipse fill="none" stroke="black" stroke-width="3" cx="860.5" cy="-705.1" rx="27" ry="25.81"/>
<text text-anchor="middle" x="860.5" y="-695.6" font-family="Times,serif" font-size="25.00">6</text>
</g>
<!-- 96&#45;&gt;6 -->
<g id="edge93" class="edge">
<title>96&#45;&gt;6</title>
<path fill="none" stroke="black" stroke-width="3" d="M1007.41,-456.85C978.96,-504.94 915.14,-612.78 881.76,-669.18"/>
<polygon fill="black" stroke="black" stroke-width="3" points="878.94,-667.07 876.86,-677.46 884.97,-670.64 878.94,-667.07"/>
</g>
<!-- 9 -->
<g id="node45" class="node">
<title>9</title>
<ellipse fill="none" stroke="black" stroke-width="3" cx="1092.65" cy="-189.6" rx="27" ry="25.81"/>
<text text-anchor="middle" x="1092.65" y="-180.1" font-family="Times,serif" font-size="25.00">9</text>
</g>
<!-- 96&#45;&gt;9 -->
<g id="edge92" class="edge">
<title>96&#45;&gt;9</title>
<path fill="none" stroke="black" stroke-width="3" d="M1029.31,-406.67C1041.71,-364.19 1066.37,-279.68 1080.99,-229.56"/>
<polygon fill="black" stroke="black" stroke-width="3" points="1084.3,-230.73 1083.74,-220.15 1077.58,-228.77 1084.3,-230.73"/>
</g>
<!-- 16192 -->
<g id="node15" class="node">
<title>16192</title>
<ellipse fill="none" stroke="black" stroke-width="3" cx="283.01" cy="-405.59" rx="56.39" ry="25.81"/>
<text text-anchor="middle" x="283.01" y="-396.09" font-family="Times,serif" font-size="25.00">16192</text>
</g>
<!-- 8&#45;&gt;16192 -->
<g id="edge17" class="edge">
<title>8&#45;&gt;16192</title>
<path fill="none" stroke="black" stroke-width="3" d="M560.97,-439.62C526.76,-445.55 466.75,-453.49 415.56,-447.58 389.92,-444.63 362.58,-436.81 339.43,-428.72"/>
<polygon fill="black" stroke="black" stroke-width="3" points="340.83,-425.5 330.23,-425.37 338.43,-432.08 340.83,-425.5"/>
</g>
<!-- 32772608 -->
<g id="node16" class="node">
<title>32772608</title>
<ellipse fill="none" stroke="black" stroke-width="3" cx="83.44" cy="-619.39" rx="83.44" ry="25.81"/>
<text text-anchor="middle" x="83.44" y="-609.89" font-family="Times,serif" font-size="25.00">32772608</text>
</g>
<!-- 16192&#45;&gt;32772608 -->
<g id="edge18" class="edge">
<title>16192&#45;&gt;32772608</title>
<path fill="none" stroke="black" stroke-width="3" d="M259.72,-430.53C224.65,-468.11 158.07,-539.43 117.53,-582.87"/>
<polygon fill="black" stroke="black" stroke-width="3" points="115.18,-580.25 110.92,-589.95 120.3,-585.03 115.18,-580.25"/>
</g>
<!-- 3277 -->
<g id="node17" class="node">
<title>3277</title>
<ellipse fill="none" stroke="black" stroke-width="3" cx="78.48" cy="-913.63" rx="47.38" ry="25.81"/>
<text text-anchor="middle" x="78.48" y="-904.13" font-family="Times,serif" font-size="25.00">3277</text>
</g>
<!-- 32772608&#45;&gt;3277 -->
<g id="edge19" class="edge">
<title>32772608&#45;&gt;3277</title>
<path fill="none" stroke="black" stroke-width="3" d="M82.98,-646.54C82.11,-698.22 80.21,-810.99 79.17,-872.17"/>
<polygon fill="black" stroke="black" stroke-width="3" points="75.68,-871.94 79.01,-882 82.68,-872.06 75.68,-871.94"/>
</g>
<!-- 2608 -->
<g id="node18" class="node">
<title>2608</title>
<ellipse fill="none" stroke="black" stroke-width="3" cx="379.88" cy="-526.41" rx="47.38" ry="25.81"/>
<text text-anchor="middle" x="379.88" y="-516.91" font-family="Times,serif" font-size="25.00">2608</text>
</g>
<!-- 32772608&#45;&gt;2608 -->
<g id="edge20" class="edge">
<title>32772608&#45;&gt;2608</title>
<path fill="none" stroke="black" stroke-width="3" d="M144.14,-600.35C196.79,-583.84 272.38,-560.13 323.66,-544.04"/>
<polygon fill="black" stroke="black" stroke-width="3" points="324.62,-547.41 333.11,-541.08 322.52,-540.73 324.62,-547.41"/>
</g>
<!-- 32 -->
<g id="node19" class="node">
<title>32</title>
<ellipse fill="none" stroke="black" stroke-width="3" cx="298.2" cy="-812.57" rx="29.34" ry="25.81"/>
<text text-anchor="middle" x="298.2" y="-803.07" font-family="Times,serif" font-size="25.00">32</text>
</g>
<!-- 3277&#45;&gt;32 -->
<g id="edge21" class="edge">
<title>3277&#45;&gt;32</title>
<path fill="none" stroke="black" stroke-width="3" d="M115.75,-896.48C155.15,-878.36 217.11,-849.87 257.69,-831.2"/>
<polygon fill="black" stroke="black" stroke-width="3" points="259.08,-834.41 266.71,-827.06 256.16,-828.05 259.08,-834.41"/>
</g>
<!-- 77 -->
<g id="node20" class="node">
<title>77</title>
<ellipse fill="none" stroke="black" stroke-width="3" cx="211.45" cy="-1129.53" rx="29.34" ry="25.81"/>
<text text-anchor="middle" x="211.45" y="-1120.03" font-family="Times,serif" font-size="25.00">77</text>
</g>
<!-- 3277&#45;&gt;77 -->
<g id="edge22" class="edge">
<title>3277&#45;&gt;77</title>
<path fill="none" stroke="black" stroke-width="3" d="M94.25,-939.24C117.81,-977.49 162.27,-1049.68 189.14,-1093.31"/>
<polygon fill="black" stroke="black" stroke-width="3" points="186.1,-1095.05 194.33,-1101.73 192.06,-1091.38 186.1,-1095.05"/>
</g>
<!-- 2608&#45;&gt;8 -->
<g id="edge89" class="edge">
<title>2608&#45;&gt;8</title>
<path fill="none" stroke="black" stroke-width="3" d="M418.16,-509.5C455.58,-492.98 512.25,-467.95 549.84,-451.35"/>
<polygon fill="black" stroke="black" stroke-width="3" points="550.86,-454.72 558.59,-447.48 548.03,-448.32 550.86,-454.72"/>
</g>
<!-- 26 -->
<g id="node54" class="node">
<title>26</title>
<ellipse fill="none" stroke="black" stroke-width="3" cx="636.16" cy="-599.83" rx="29.34" ry="25.81"/>
<text text-anchor="middle" x="636.16" y="-590.33" font-family="Times,serif" font-size="25.00">26</text>
</g>
<!-- 2608&#45;&gt;26 -->
<g id="edge88" class="edge">
<title>2608&#45;&gt;26</title>
<path fill="none" stroke="black" stroke-width="3" d="M428.62,-527.17C472.1,-529.56 536.5,-537.39 586.98,-561.58 592.73,-564.34 598.44,-567.86 603.83,-571.64"/>
<polygon fill="black" stroke="black" stroke-width="3" points="601.3,-574.11 611.37,-577.39 605.54,-568.54 601.3,-574.11"/>
</g>
<!-- 32&#45;&gt;2 -->
<g id="edge24" class="edge">
<title>32&#45;&gt;2</title>
<path fill="none" stroke="black" stroke-width="3" d="M311.5,-788.14C328.93,-756.14 359.63,-699.77 379.89,-662.56"/>
<polygon fill="black" stroke="black" stroke-width="3" points="382.96,-664.24 384.67,-653.78 376.81,-660.89 382.96,-664.24"/>
</g>
<!-- 3 -->
<g id="node21" class="node">
<title>3</title>
<ellipse fill="none" stroke="black" stroke-width="3" cx="540.02" cy="-842.19" rx="27" ry="25.81"/>
<text text-anchor="middle" x="540.02" y="-832.69" font-family="Times,serif" font-size="25.00">3</text>
</g>
<!-- 32&#45;&gt;3 -->
<g id="edge23" class="edge">
<title>32&#45;&gt;3</title>
<path fill="none" stroke="black" stroke-width="3" d="M328.33,-816.27C370.93,-821.48 448.93,-831.04 497.43,-836.98"/>
<polygon fill="black" stroke="black" stroke-width="3" points="496.9,-840.44 507.25,-838.18 497.75,-833.49 496.9,-840.44"/>
</g>
<!-- 7 -->
<g id="node32" class="node">
<title>7</title>
<ellipse fill="none" stroke="black" stroke-width="3" cx="457.01" cy="-1121.1" rx="27" ry="25.81"/>
<text text-anchor="middle" x="457.01" y="-1111.6" font-family="Times,serif" font-size="25.00">7</text>
</g>
<!-- 77&#45;&gt;7 -->
<g id="edge86" class="edge">
<title>77&#45;&gt;7</title>
<path fill="none" stroke="black" stroke-width="3" d="M241.71,-1133.11C285.21,-1134.23 365.57,-1131.69 414.86,-1127.8"/>
<polygon fill="black" stroke="black" stroke-width="3" points="414.9,-1131.31 424.56,-1126.95 414.29,-1124.34 414.9,-1131.31"/>
</g>
<!-- 77&#45;&gt;7 -->
<g id="edge87" class="edge">
<title>77&#45;&gt;7</title>
<path fill="none" stroke="black" stroke-width="3" d="M241.4,-1123.88C284.72,-1119.78 365.06,-1116.81 414.5,-1117.31"/>
<polygon fill="black" stroke="black" stroke-width="3" points="414.17,-1120.81 424.23,-1117.5 414.3,-1113.81 414.17,-1120.81"/>
</g>
<!-- 6072 -->
<g id="node22" class="node">
<title>6072</title>
<ellipse fill="none" stroke="black" stroke-width="3" cx="401.6" cy="-779.01" rx="47.38" ry="25.81"/>
<text text-anchor="middle" x="401.6" y="-769.51" font-family="Times,serif" font-size="25.00">6072</text>
</g>
<!-- 3&#45;&gt;6072 -->
<g id="edge25" class="edge">
<title>3&#45;&gt;6072</title>
<path fill="none" stroke="black" stroke-width="3" d="M514.31,-830.46C496.91,-822.52 473.35,-811.76 452.26,-802.13"/>
<polygon fill="black" stroke="black" stroke-width="3" points="453.87,-799.02 443.32,-798.05 450.97,-805.39 453.87,-799.02"/>
</g>
<!-- 60 -->
<g id="node23" class="node">
<title>60</title>
<ellipse fill="none" stroke="black" stroke-width="3" cx="603.89" cy="-678.52" rx="29.34" ry="25.81"/>
<text text-anchor="middle" x="603.89" y="-669.02" font-family="Times,serif" font-size="25.00">60</text>
</g>
<!-- 6072&#45;&gt;60 -->
<g id="edge26" class="edge">
<title>6072&#45;&gt;60</title>
<path fill="none" stroke="black" stroke-width="3" d="M440.81,-762.96C472.82,-749.44 518.93,-728.97 557.65,-707.96 560.87,-706.22 564.17,-704.33 567.45,-702.38"/>
<polygon fill="black" stroke="black" stroke-width="3" points="569.26,-705.38 575.93,-697.14 565.58,-699.42 569.26,-705.38"/>
</g>
<!-- 72 -->
<g id="node24" class="node">
<title>72</title>
<ellipse fill="none" stroke="black" stroke-width="3" cx="323.8" cy="-904.84" rx="29.34" ry="25.81"/>
<text text-anchor="middle" x="323.8" y="-895.34" font-family="Times,serif" font-size="25.00">72</text>
</g>
<!-- 6072&#45;&gt;72 -->
<g id="edge27" class="edge">
<title>6072&#45;&gt;72</title>
<path fill="none" stroke="black" stroke-width="3" d="M385.67,-804.78C374.24,-823.27 358.68,-848.42 346.03,-868.89"/>
<polygon fill="black" stroke="black" stroke-width="3" points="343.07,-867.02 340.78,-877.37 349.02,-870.7 343.07,-867.02"/>
</g>
<!-- 60&#45;&gt;0 -->
<g id="edge29" class="edge">
<title>60&#45;&gt;0</title>
<path fill="none" stroke="black" stroke-width="3" d="M599.88,-651.69C598.35,-636.36 597.68,-616.86 601.04,-599.83 609.26,-558.2 636.31,-555.11 640.5,-512.88 644.64,-471.16 631.61,-424.54 619.91,-392.7"/>
<polygon fill="black" stroke="black" stroke-width="3" points="623.19,-391.49 616.33,-383.42 616.66,-394.01 623.19,-391.49"/>
</g>
<!-- 60&#45;&gt;6 -->
<g id="edge28" class="edge">
<title>60&#45;&gt;6</title>
<path fill="none" stroke="black" stroke-width="3" d="M634.33,-681.68C680.01,-686.41 766.42,-695.36 818.2,-700.72"/>
<polygon fill="black" stroke="black" stroke-width="3" points="817.63,-704.18 827.93,-701.73 818.35,-697.22 817.63,-704.18"/>
</g>
<!-- 72&#45;&gt;2 -->
<g id="edge85" class="edge">
<title>72&#45;&gt;2</title>
<path fill="none" stroke="black" stroke-width="3" d="M327.53,-878.07C331.39,-852.42 338.09,-812.73 346.97,-779.01 357.4,-739.38 373.1,-695.27 384.71,-664.57"/>
<polygon fill="black" stroke="black" stroke-width="3" points="387.95,-665.89 388.25,-655.3 381.41,-663.39 387.95,-665.89"/>
</g>
<!-- 72&#45;&gt;7 -->
<g id="edge84" class="edge">
<title>72&#45;&gt;7</title>
<path fill="none" stroke="black" stroke-width="3" d="M338.56,-928.81C361.99,-966.84 407.81,-1041.24 435.09,-1085.52"/>
<polygon fill="black" stroke="black" stroke-width="3" points="431.97,-1087.14 440.2,-1093.82 437.93,-1083.47 431.97,-1087.14"/>
</g>
<!-- 12144 -->
<g id="node26" class="node">
<title>12144</title>
<ellipse fill="none" stroke="black" stroke-width="3" cx="1129.8" cy="-778.35" rx="56.39" ry="25.81"/>
<text text-anchor="middle" x="1129.8" y="-768.85" font-family="Times,serif" font-size="25.00">12144</text>
</g>
<!-- 6&#45;&gt;12144 -->
<g id="edge30" class="edge">
<title>6&#45;&gt;12144</title>
<path fill="none" stroke="black" stroke-width="3" d="M887.81,-712.53C929.29,-723.81 1009.34,-745.58 1065.99,-760.99"/>
<polygon fill="black" stroke="black" stroke-width="3" points="1064.91,-764.32 1075.47,-763.57 1066.74,-757.57 1064.91,-764.32"/>
</g>
<!-- 24579456 -->
<g id="node27" class="node">
<title>24579456</title>
<ellipse fill="none" stroke="black" stroke-width="3" cx="1037.25" cy="-920.98" rx="83.44" ry="25.81"/>
<text text-anchor="middle" x="1037.25" y="-911.48" font-family="Times,serif" font-size="25.00">24579456</text>
</g>
<!-- 12144&#45;&gt;24579456 -->
<g id="edge31" class="edge">
<title>12144&#45;&gt;24579456</title>
<path fill="none" stroke="black" stroke-width="3" d="M1113.04,-804.18C1098.87,-826.02 1078.36,-857.62 1062.25,-882.45"/>
<polygon fill="black" stroke="black" stroke-width="3" points="1059.49,-880.27 1056.99,-890.57 1065.37,-884.08 1059.49,-880.27"/>
</g>
<!-- 2457 -->
<g id="node28" class="node">
<title>2457</title>
<ellipse fill="none" stroke="black" stroke-width="3" cx="720.72" cy="-819.42" rx="47.38" ry="25.81"/>
<text text-anchor="middle" x="720.72" y="-809.92" font-family="Times,serif" font-size="25.00">2457</text>
</g>
<!-- 24579456&#45;&gt;2457 -->
<g id="edge32" class="edge">
<title>24579456&#45;&gt;2457</title>
<path fill="none" stroke="black" stroke-width="3" d="M977.34,-901.76C919.51,-883.2 832.65,-855.33 776.32,-837.26"/>
<polygon fill="black" stroke="black" stroke-width="3" points="777.61,-834 767.02,-834.27 775.47,-840.66 777.61,-834"/>
</g>
<!-- 9456 -->
<g id="node29" class="node">
<title>9456</title>
<ellipse fill="none" stroke="black" stroke-width="3" cx="1132.58" cy="-634.98" rx="47.38" ry="25.81"/>
<text text-anchor="middle" x="1132.58" y="-625.48" font-family="Times,serif" font-size="25.00">9456</text>
</g>
<!-- 24579456&#45;&gt;9456 -->
<g id="edge33" class="edge">
<title>24579456&#45;&gt;9456</title>
<path fill="none" stroke="black" stroke-width="3" d="M1052.77,-894.43C1060.6,-879.2 1069.05,-859.39 1071.93,-840.42 1076.1,-813 1060.8,-805.7 1065.41,-778.35 1071.83,-740.21 1091.48,-700.68 1107.89,-672.81"/>
<polygon fill="black" stroke="black" stroke-width="3" points="1110.81,-674.75 1113.01,-664.38 1104.83,-671.11 1110.81,-674.75"/>
</g>
<!-- 2457&#45;&gt;24 -->
<g id="edge34" class="edge">
<title>2457&#45;&gt;24</title>
<path fill="none" stroke="black" stroke-width="3" d="M719.65,-792.15C716.64,-744.88 705.1,-646.21 660.99,-577.71 653.44,-565.99 643.94,-554.13 634.94,-543.83"/>
<polygon fill="black" stroke="black" stroke-width="3" points="637.81,-541.79 628.52,-536.7 632.61,-546.47 637.81,-541.79"/>
</g>
<!-- 57 -->
<g id="node30" class="node">
<title>57</title>
<ellipse fill="none" stroke="black" stroke-width="3" cx="714.74" cy="-1091.55" rx="29.34" ry="25.81"/>
<text text-anchor="middle" x="714.74" y="-1082.05" font-family="Times,serif" font-size="25.00">57</text>
</g>
<!-- 2457&#45;&gt;57 -->
<g id="edge35" class="edge">
<title>2457&#45;&gt;57</title>
<path fill="none" stroke="black" stroke-width="3" d="M691.03,-841.07C678.5,-851.81 664.96,-865.83 656.9,-881.5 642.89,-908.75 642.21,-919.33 646.55,-949.67 652.17,-988.9 673.31,-1029.22 690.58,-1056.8"/>
<polygon fill="black" stroke="black" stroke-width="3" points="687.57,-1058.6 695.94,-1065.08 693.44,-1054.79 687.57,-1058.6"/>
</g>
<!-- 94 -->
<g id="node43" class="node">
<title>94</title>
<ellipse fill="none" stroke="black" stroke-width="3" cx="1009.75" cy="-353.22" rx="29.34" ry="25.81"/>
<text text-anchor="middle" x="1009.75" y="-343.72" font-family="Times,serif" font-size="25.00">94</text>
</g>
<!-- 9456&#45;&gt;94 -->
<g id="edge62" class="edge">
<title>9456&#45;&gt;94</title>
<path fill="none" stroke="black" stroke-width="3" d="M1124.88,-608.03C1111.97,-564.81 1083.66,-478.01 1046.55,-410.55 1042.55,-403.27 1037.97,-395.67 1033.44,-388.47"/>
<polygon fill="black" stroke="black" stroke-width="3" points="1036.53,-386.81 1028.17,-380.31 1030.65,-390.61 1036.53,-386.81"/>
</g>
<!-- 56 -->
<g id="node44" class="node">
<title>56</title>
<ellipse fill="none" stroke="black" stroke-width="3" cx="1036.82" cy="-840.42" rx="29.34" ry="25.81"/>
<text text-anchor="middle" x="1036.82" y="-830.92" font-family="Times,serif" font-size="25.00">56</text>
</g>
<!-- 9456&#45;&gt;56 -->
<g id="edge63" class="edge">
<title>9456&#45;&gt;56</title>
<path fill="none" stroke="black" stroke-width="3" d="M1120.15,-661.38C1106.63,-690.13 1084.4,-737.47 1065.41,-778.35 1061.83,-786.04 1058.02,-794.28 1054.39,-802.16"/>
<polygon fill="black" stroke="black" stroke-width="3" points="1051.23,-800.66 1050.22,-811.21 1057.59,-803.59 1051.23,-800.66"/>
</g>
<!-- 5 -->
<g id="node31" class="node">
<title>5</title>
<ellipse fill="none" stroke="black" stroke-width="3" cx="946.47" cy="-1075.18" rx="27" ry="25.81"/>
<text text-anchor="middle" x="946.47" y="-1065.68" font-family="Times,serif" font-size="25.00">5</text>
</g>
<!-- 57&#45;&gt;5 -->
<g id="edge38" class="edge">
<title>57&#45;&gt;5</title>
<path fill="none" stroke="black" stroke-width="3" d="M745.03,-1089.41C785.68,-1086.54 858.08,-1081.42 904.11,-1078.17"/>
<polygon fill="black" stroke="black" stroke-width="3" points="904.09,-1081.68 913.81,-1077.48 903.59,-1074.7 904.09,-1081.68"/>
</g>
<!-- 57&#45;&gt;7 -->
<g id="edge39" class="edge">
<title>57&#45;&gt;7</title>
<path fill="none" stroke="black" stroke-width="3" d="M684.16,-1095.06C638.29,-1100.32 551.5,-1110.27 499.49,-1116.23"/>
<polygon fill="black" stroke="black" stroke-width="3" points="499.23,-1112.74 489.69,-1117.36 500.03,-1119.69 499.23,-1112.74"/>
</g>
<!-- 10120 -->
<g id="node33" class="node">
<title>10120</title>
<ellipse fill="none" stroke="black" stroke-width="3" cx="893.79" cy="-1207.14" rx="56.39" ry="25.81"/>
<text text-anchor="middle" x="893.79" y="-1197.64" font-family="Times,serif" font-size="25.00">10120</text>
</g>
<!-- 5&#45;&gt;10120 -->
<g id="edge40" class="edge">
<title>5&#45;&gt;10120</title>
<path fill="none" stroke="black" stroke-width="3" d="M936.31,-1100.62C928.8,-1119.42 918.44,-1145.39 909.82,-1166.98"/>
<polygon fill="black" stroke="black" stroke-width="3" points="906.6,-1165.61 906.14,-1176.2 913.1,-1168.21 906.6,-1165.61"/>
</g>
<!-- 14168 -->
<g id="node38" class="node">
<title>14168</title>
<ellipse fill="none" stroke="black" stroke-width="3" cx="385.9" cy="-1368.57" rx="56.39" ry="25.81"/>
<text text-anchor="middle" x="385.9" y="-1359.07" font-family="Times,serif" font-size="25.00">14168</text>
</g>
<!-- 7&#45;&gt;14168 -->
<g id="edge52" class="edge">
<title>7&#45;&gt;14168</title>
<path fill="none" stroke="black" stroke-width="3" d="M449.53,-1147.12C437.14,-1190.24 412.26,-1276.84 397.55,-1328.04"/>
<polygon fill="black" stroke="black" stroke-width="3" points="394.25,-1326.84 394.85,-1337.42 400.98,-1328.77 394.25,-1326.84"/>
</g>
<!-- 20482880 -->
<g id="node34" class="node">
<title>20482880</title>
<ellipse fill="none" stroke="black" stroke-width="3" cx="750.57" cy="-881.5" rx="83.44" ry="25.81"/>
<text text-anchor="middle" x="750.57" y="-872" font-family="Times,serif" font-size="25.00">20482880</text>
</g>
<!-- 10120&#45;&gt;20482880 -->
<g id="edge41" class="edge">
<title>10120&#45;&gt;20482880</title>
<path fill="none" stroke="black" stroke-width="3" d="M882.07,-1180.49C856.94,-1123.37 797.78,-988.84 768.14,-921.45"/>
<polygon fill="black" stroke="black" stroke-width="3" points="771.51,-920.42 764.28,-912.68 765.1,-923.24 771.51,-920.42"/>
</g>
<!-- 2048 -->
<g id="node35" class="node">
<title>2048</title>
<ellipse fill="none" stroke="black" stroke-width="3" cx="548.35" cy="-583.71" rx="47.38" ry="25.81"/>
<text text-anchor="middle" x="548.35" y="-574.21" font-family="Times,serif" font-size="25.00">2048</text>
</g>
<!-- 20482880&#45;&gt;2048 -->
<g id="edge42" class="edge">
<title>20482880&#45;&gt;2048</title>
<path fill="none" stroke="black" stroke-width="3" d="M705.26,-858.65C697.13,-853.57 689.04,-847.81 682.08,-841.54 624.47,-789.59 618.49,-767.45 579.05,-700.65 565.42,-677.56 557.75,-648.39 553.48,-624.96"/>
<polygon fill="black" stroke="black" stroke-width="3" points="556.98,-624.66 551.92,-615.35 550.07,-625.79 556.98,-624.66"/>
</g>
<!-- 2880 -->
<g id="node36" class="node">
<title>2880</title>
<ellipse fill="none" stroke="black" stroke-width="3" cx="741.34" cy="-616.9" rx="47.38" ry="25.81"/>
<text text-anchor="middle" x="741.34" y="-607.4" font-family="Times,serif" font-size="25.00">2880</text>
</g>
<!-- 20482880&#45;&gt;2880 -->
<g id="edge43" class="edge">
<title>20482880&#45;&gt;2880</title>
<path fill="none" stroke="black" stroke-width="3" d="M764.91,-854.83C769.65,-844.16 774.05,-831.53 775.35,-819.42 781.4,-762.9 766.73,-698.24 754.79,-657.49"/>
<polygon fill="black" stroke="black" stroke-width="3" points="758.15,-656.51 751.89,-647.96 751.46,-658.55 758.15,-656.51"/>
</g>
<!-- 2048&#45;&gt;20 -->
<g id="edge44" class="edge">
<title>2048&#45;&gt;20</title>
<path fill="none" stroke="black" stroke-width="3" d="M528.76,-559.01C505.75,-530.01 467.5,-481.78 441.92,-449.52"/>
<polygon fill="black" stroke="black" stroke-width="3" points="444.89,-447.64 435.94,-441.98 439.41,-451.99 444.89,-447.64"/>
</g>
<!-- 2048&#45;&gt;48 -->
<g id="edge45" class="edge">
<title>2048&#45;&gt;48</title>
<path fill="none" stroke="black" stroke-width="3" d="M545.77,-556.68C541.46,-511.64 532.8,-420.94 527.73,-367.86"/>
<polygon fill="black" stroke="black" stroke-width="3" points="531.24,-367.78 526.8,-358.16 524.27,-368.45 531.24,-367.78"/>
</g>
<!-- 2880&#45;&gt;80 -->
<g id="edge49" class="edge">
<title>2880&#45;&gt;80</title>
<path fill="none" stroke="black" stroke-width="3" d="M745.19,-589.84C751.16,-547.97 762.67,-467.2 769.67,-418.08"/>
<polygon fill="black" stroke="black" stroke-width="3" points="773.1,-418.83 771.04,-408.43 766.17,-417.84 773.1,-418.83"/>
</g>
<!-- 28 -->
<g id="node37" class="node">
<title>28</title>
<ellipse fill="none" stroke="black" stroke-width="3" cx="532.82" cy="-685.84" rx="29.34" ry="25.81"/>
<text text-anchor="middle" x="532.82" y="-676.34" font-family="Times,serif" font-size="25.00">28</text>
</g>
<!-- 2880&#45;&gt;28 -->
<g id="edge48" class="edge">
<title>2880&#45;&gt;28</title>
<path fill="none" stroke="black" stroke-width="3" d="M693.98,-622.77C660.55,-628.24 615.42,-638.36 579.05,-656.4 575.77,-658.02 572.43,-659.83 569.12,-661.72"/>
<polygon fill="black" stroke="black" stroke-width="3" points="567.34,-658.71 560.61,-666.89 570.97,-664.69 567.34,-658.71"/>
</g>
<!-- 28&#45;&gt;2 -->
<g id="edge50" class="edge">
<title>28&#45;&gt;2</title>
<path fill="none" stroke="black" stroke-width="3" d="M505.62,-673.51C486.22,-664.72 459.88,-652.79 438.35,-643.03"/>
<polygon fill="black" stroke="black" stroke-width="3" points="440.04,-639.95 429.49,-639.01 437.15,-646.33 440.04,-639.95"/>
</g>
<!-- 28&#45;&gt;8 -->
<g id="edge51" class="edge">
<title>28&#45;&gt;8</title>
<path fill="none" stroke="black" stroke-width="3" d="M554.9,-666.93C574.39,-648.15 600.13,-617.36 602.98,-583.71 605.91,-549.16 573.79,-547.38 570.26,-512.88 568.93,-499.85 571.01,-485.85 574.2,-473.33"/>
<polygon fill="black" stroke="black" stroke-width="3" points="577.53,-474.39 577.01,-463.81 570.82,-472.41 577.53,-474.39"/>
</g>
<!-- 28676032 -->
<g id="node39" class="node">
<title>28676032</title>
<ellipse fill="none" stroke="black" stroke-width="3" cx="332.55" cy="-1191.12" rx="83.44" ry="25.81"/>
<text text-anchor="middle" x="332.55" y="-1181.62" font-family="Times,serif" font-size="25.00">28676032</text>
</g>
<!-- 14168&#45;&gt;28676032 -->
<g id="edge53" class="edge">
<title>14168&#45;&gt;28676032</title>
<path fill="none" stroke="black" stroke-width="3" d="M377.8,-1341.62C369,-1312.35 354.85,-1265.28 344.71,-1231.57"/>
<polygon fill="black" stroke="black" stroke-width="3" points="348.18,-1230.95 341.95,-1222.38 341.48,-1232.97 348.18,-1230.95"/>
</g>
<!-- 2867 -->
<g id="node40" class="node">
<title>2867</title>
<ellipse fill="none" stroke="black" stroke-width="3" cx="487.96" cy="-966.09" rx="47.38" ry="25.81"/>
<text text-anchor="middle" x="487.96" y="-956.59" font-family="Times,serif" font-size="25.00">2867</text>
</g>
<!-- 28676032&#45;&gt;2867 -->
<g id="edge54" class="edge">
<title>28676032&#45;&gt;2867</title>
<path fill="none" stroke="black" stroke-width="3" d="M350.68,-1164.87C378.26,-1124.93 430.86,-1048.77 462.33,-1003.2"/>
<polygon fill="black" stroke="black" stroke-width="3" points="465.04,-1005.44 467.84,-995.22 459.28,-1001.46 465.04,-1005.44"/>
</g>
<!-- 6032 -->
<g id="node41" class="node">
<title>6032</title>
<ellipse fill="none" stroke="black" stroke-width="3" cx="425.29" cy="-905.79" rx="47.38" ry="25.81"/>
<text text-anchor="middle" x="425.29" y="-896.29" font-family="Times,serif" font-size="25.00">6032</text>
</g>
<!-- 28676032&#45;&gt;6032 -->
<g id="edge55" class="edge">
<title>28676032&#45;&gt;6032</title>
<path fill="none" stroke="black" stroke-width="3" d="M341.36,-1164.02C357.77,-1113.52 393.11,-1004.79 412.28,-945.81"/>
<polygon fill="black" stroke="black" stroke-width="3" points="415.51,-947.21 415.27,-936.61 408.85,-945.04 415.51,-947.21"/>
</g>
<!-- 2867&#45;&gt;28 -->
<g id="edge56" class="edge">
<title>2867&#45;&gt;28</title>
<path fill="none" stroke="black" stroke-width="3" d="M492.18,-939.01C496.1,-913.91 502.12,-875.52 507.44,-842.19 513.69,-803.1 520.93,-758.54 526.08,-727.01"/>
<polygon fill="black" stroke="black" stroke-width="3" points="529.53,-727.58 527.69,-717.15 522.62,-726.45 529.53,-727.58"/>
</g>
<!-- 67 -->
<g id="node42" class="node">
<title>67</title>
<ellipse fill="none" stroke="black" stroke-width="3" cx="681.67" cy="-949.67" rx="29.34" ry="25.81"/>
<text text-anchor="middle" x="681.67" y="-940.17" font-family="Times,serif" font-size="25.00">67</text>
</g>
<!-- 2867&#45;&gt;67 -->
<g id="edge57" class="edge">
<title>2867&#45;&gt;67</title>
<path fill="none" stroke="black" stroke-width="3" d="M535.85,-962.03C566.71,-959.41 606.57,-956.03 636.82,-953.47"/>
<polygon fill="black" stroke="black" stroke-width="3" points="637.04,-956.96 646.71,-952.63 636.45,-949.99 637.04,-956.96"/>
</g>
<!-- 6032&#45;&gt;32 -->
<g id="edge61" class="edge">
<title>6032&#45;&gt;32</title>
<path fill="none" stroke="black" stroke-width="3" d="M395.81,-884.17C377.11,-870.45 352.81,-852.63 333.14,-838.2"/>
<polygon fill="black" stroke="black" stroke-width="3" points="335.38,-835.5 325.24,-832.41 331.24,-841.15 335.38,-835.5"/>
</g>
<!-- 6032&#45;&gt;60 -->
<g id="edge60" class="edge">
<title>6032&#45;&gt;60</title>
<path fill="none" stroke="black" stroke-width="3" d="M444.74,-881.04C476.93,-840.08 541.3,-758.17 577.53,-712.06"/>
<polygon fill="black" stroke="black" stroke-width="3" points="580.08,-714.48 583.51,-704.45 574.58,-710.15 580.08,-714.48"/>
</g>
<!-- 67&#45;&gt;6 -->
<g id="edge58" class="edge">
<title>67&#45;&gt;6</title>
<path fill="none" stroke="black" stroke-width="3" d="M712.26,-947.73C751.88,-943.31 818.87,-928.84 844.24,-881.5 866.72,-839.57 867.97,-783.91 865.44,-746.41"/>
<polygon fill="black" stroke="black" stroke-width="3" points="868.94,-746.23 864.61,-736.56 861.96,-746.82 868.94,-746.23"/>
</g>
<!-- 67&#45;&gt;7 -->
<g id="edge59" class="edge">
<title>67&#45;&gt;7</title>
<path fill="none" stroke="black" stroke-width="3" d="M658.47,-967.37C618.54,-997.84 536.67,-1060.31 490.54,-1095.52"/>
<polygon fill="black" stroke="black" stroke-width="3" points="488.52,-1092.66 482.69,-1101.51 492.76,-1098.22 488.52,-1092.66"/>
</g>
<!-- 94&#45;&gt;4 -->
<g id="edge65" class="edge">
<title>94&#45;&gt;4</title>
<path fill="none" stroke="black" stroke-width="3" d="M979.82,-346.84C932.79,-336.82 841.45,-317.35 788.11,-305.98"/>
<polygon fill="black" stroke="black" stroke-width="3" points="789.1,-302.61 778.59,-303.95 787.64,-309.46 789.1,-302.61"/>
</g>
<!-- 94&#45;&gt;9 -->
<g id="edge64" class="edge">
<title>94&#45;&gt;9</title>
<path fill="none" stroke="black" stroke-width="3" d="M1022.34,-328.37C1035.99,-301.42 1057.94,-258.11 1073.68,-227.04"/>
<polygon fill="black" stroke="black" stroke-width="3" points="1076.77,-228.7 1078.16,-218.2 1070.52,-225.54 1076.77,-228.7"/>
</g>
<!-- 56&#45;&gt;6 -->
<g id="edge83" class="edge">
<title>56&#45;&gt;6</title>
<path fill="none" stroke="black" stroke-width="3" d="M1013.77,-822.73C983.16,-799.24 928.88,-757.58 893.82,-730.67"/>
<polygon fill="black" stroke="black" stroke-width="3" points="896.39,-728.23 886.33,-724.92 892.13,-733.78 896.39,-728.23"/>
</g>
<!-- 56&#45;&gt;5 -->
<g id="edge82" class="edge">
<title>56&#45;&gt;5</title>
<path fill="none" stroke="black" stroke-width="3" d="M1010.6,-854.27C988.02,-867.85 957.01,-890.9 943.58,-920.98 927.57,-956.86 930.87,-1002.28 936.59,-1034.51"/>
<polygon fill="black" stroke="black" stroke-width="3" points="933.15,-1035.16 938.54,-1044.28 940.02,-1033.79 933.15,-1035.16"/>
</g>
<!-- 18216 -->
<g id="node46" class="node">
<title>18216</title>
<ellipse fill="none" stroke="black" stroke-width="3" cx="1321" cy="-59.02" rx="56.39" ry="25.81"/>
<text text-anchor="middle" x="1321" y="-49.52" font-family="Times,serif" font-size="25.00">18216</text>
</g>
<!-- 9&#45;&gt;18216 -->
<g id="edge66" class="edge">
<title>9&#45;&gt;18216</title>
<path fill="none" stroke="black" stroke-width="3" d="M1117.09,-175.63C1153.87,-154.59 1224.22,-114.37 1271.87,-87.11"/>
<polygon fill="black" stroke="black" stroke-width="3" points="1273.48,-90.23 1280.42,-82.22 1270,-84.15 1273.48,-90.23"/>
</g>
<!-- 36869184 -->
<g id="node47" class="node">
<title>36869184</title>
<ellipse fill="none" stroke="black" stroke-width="3" cx="1211.41" cy="-281.04" rx="83.44" ry="25.81"/>
<text text-anchor="middle" x="1211.41" y="-271.54" font-family="Times,serif" font-size="25.00">36869184</text>
</g>
<!-- 18216&#45;&gt;36869184 -->
<g id="edge67" class="edge">
<title>18216&#45;&gt;36869184</title>
<path fill="none" stroke="black" stroke-width="3" d="M1308,-85.36C1288.89,-124.06 1253.1,-196.57 1230.86,-241.63"/>
<polygon fill="black" stroke="black" stroke-width="3" points="1227.86,-239.8 1226.57,-250.32 1234.14,-242.9 1227.86,-239.8"/>
</g>
<!-- 3686 -->
<g id="node48" class="node">
<title>3686</title>
<ellipse fill="none" stroke="black" stroke-width="3" cx="1014.7" cy="-573.29" rx="47.38" ry="25.81"/>
<text text-anchor="middle" x="1014.7" y="-563.79" font-family="Times,serif" font-size="25.00">3686</text>
</g>
<!-- 36869184&#45;&gt;3686 -->
<g id="edge68" class="edge">
<title>36869184&#45;&gt;3686</title>
<path fill="none" stroke="black" stroke-width="3" d="M1193.61,-307.49C1158.47,-359.7 1080.11,-476.12 1039.77,-536.05"/>
<polygon fill="black" stroke="black" stroke-width="3" points="1036.98,-533.93 1034.3,-544.18 1042.79,-537.83 1036.98,-533.93"/>
</g>
<!-- 9184 -->
<g id="node49" class="node">
<title>9184</title>
<ellipse fill="none" stroke="black" stroke-width="3" cx="1002.94" cy="-77.94" rx="47.38" ry="25.81"/>
<text text-anchor="middle" x="1002.94" y="-68.44" font-family="Times,serif" font-size="25.00">9184</text>
</g>
<!-- 36869184&#45;&gt;9184 -->
<g id="edge69" class="edge">
<title>36869184&#45;&gt;9184</title>
<path fill="none" stroke="black" stroke-width="3" d="M1191.5,-254.5C1173.03,-230.62 1144.18,-195.14 1115.69,-167.47 1093.6,-146.02 1066.66,-124.48 1044.66,-107.91"/>
<polygon fill="black" stroke="black" stroke-width="3" points="1046.76,-105.11 1036.64,-101.95 1042.58,-110.73 1046.76,-105.11"/>
</g>
<!-- 36 -->
<g id="node50" class="node">
<title>36</title>
<ellipse fill="none" stroke="black" stroke-width="3" cx="812.77" cy="-765.35" rx="29.34" ry="25.81"/>
<text text-anchor="middle" x="812.77" y="-755.85" font-family="Times,serif" font-size="25.00">36</text>
</g>
<!-- 3686&#45;&gt;36 -->
<g id="edge70" class="edge">
<title>3686&#45;&gt;36</title>
<path fill="none" stroke="black" stroke-width="3" d="M997.58,-598.73C974.58,-631.51 931.06,-688.83 883.54,-727.23 874.38,-734.63 863.57,-741.29 853.2,-746.9"/>
<polygon fill="black" stroke="black" stroke-width="3" points="851.8,-743.68 844.48,-751.35 854.98,-749.92 851.8,-743.68"/>
</g>
<!-- 86 -->
<g id="node51" class="node">
<title>86</title>
<ellipse fill="none" stroke="black" stroke-width="3" cx="827.52" cy="-504.18" rx="29.34" ry="25.81"/>
<text text-anchor="middle" x="827.52" y="-494.68" font-family="Times,serif" font-size="25.00">86</text>
</g>
<!-- 3686&#45;&gt;86 -->
<g id="edge71" class="edge">
<title>3686&#45;&gt;86</title>
<path fill="none" stroke="black" stroke-width="3" d="M974.09,-558.29C943.13,-546.87 900.65,-531.18 869.38,-519.64"/>
<polygon fill="black" stroke="black" stroke-width="3" points="870.75,-516.41 860.15,-516.23 868.32,-522.98 870.75,-516.41"/>
</g>
<!-- 91 -->
<g id="node52" class="node">
<title>91</title>
<ellipse fill="none" stroke="black" stroke-width="3" cx="911.64" cy="-25.81" rx="29.34" ry="25.81"/>
<text text-anchor="middle" x="911.64" y="-16.31" font-family="Times,serif" font-size="25.00">91</text>
</g>
<!-- 9184&#45;&gt;91 -->
<g id="edge76" class="edge">
<title>9184&#45;&gt;91</title>
<path fill="none" stroke="black" stroke-width="3" d="M968.94,-58.53C962.74,-54.99 956.23,-51.27 949.92,-47.67"/>
<polygon fill="black" stroke="black" stroke-width="3" points="951.75,-44.68 941.33,-42.76 948.28,-50.76 951.75,-44.68"/>
</g>
<!-- 84 -->
<g id="node53" class="node">
<title>84</title>
<ellipse fill="none" stroke="black" stroke-width="3" cx="772.94" cy="-194.61" rx="29.34" ry="25.81"/>
<text text-anchor="middle" x="772.94" y="-185.11" font-family="Times,serif" font-size="25.00">84</text>
</g>
<!-- 9184&#45;&gt;84 -->
<g id="edge77" class="edge">
<title>9184&#45;&gt;84</title>
<path fill="none" stroke="black" stroke-width="3" d="M967,-96.17C925.07,-117.44 855.96,-152.5 812.53,-174.53"/>
<polygon fill="black" stroke="black" stroke-width="3" points="811.05,-171.35 803.71,-179 814.22,-177.6 811.05,-171.35"/>
</g>
<!-- 36&#45;&gt;3 -->
<g id="edge72" class="edge">
<title>36&#45;&gt;3</title>
<path fill="none" stroke="black" stroke-width="3" d="M783.04,-772.02C756.45,-778.13 716.5,-787.66 682.08,-797.29 647.61,-806.94 608.9,-819.28 580.6,-828.58"/>
<polygon fill="black" stroke="black" stroke-width="3" points="579.54,-825.24 571.14,-831.71 581.74,-831.89 579.54,-825.24"/>
</g>
<!-- 36&#45;&gt;6 -->
<g id="edge73" class="edge">
<title>36&#45;&gt;6</title>
<path fill="none" stroke="black" stroke-width="3" d="M830.27,-743.26C831.6,-741.58 832.96,-739.86 834.33,-738.13"/>
<polygon fill="black" stroke="black" stroke-width="3" points="837.03,-740.36 840.5,-730.35 831.55,-736.01 837.03,-740.36"/>
</g>
<!-- 86&#45;&gt;8 -->
<g id="edge74" class="edge">
<title>86&#45;&gt;8</title>
<path fill="none" stroke="black" stroke-width="3" d="M798.7,-495.75C756.52,-483.4 677.77,-460.34 629.58,-446.23"/>
<polygon fill="black" stroke="black" stroke-width="3" points="630.62,-442.89 620.04,-443.43 628.65,-449.6 630.62,-442.89"/>
</g>
<!-- 86&#45;&gt;6 -->
<g id="edge75" class="edge">
<title>86&#45;&gt;6</title>
<path fill="none" stroke="black" stroke-width="3" d="M831.9,-530.86C837.49,-564.94 847.23,-624.25 853.77,-664.09"/>
<polygon fill="black" stroke="black" stroke-width="3" points="850.3,-664.53 855.37,-673.83 857.2,-663.39 850.3,-664.53"/>
</g>
<!-- 91&#45;&gt;1 -->
<g id="edge79" class="edge">
<title>91&#45;&gt;1</title>
<path fill="none" stroke="black" stroke-width="3" d="M884.01,-37.07C842.04,-54.18 762.02,-86.79 714.05,-106.34"/>
<polygon fill="black" stroke="black" stroke-width="3" points="712.99,-103 705.05,-110.01 715.63,-109.48 712.99,-103"/>
</g>
<!-- 91&#45;&gt;9 -->
<g id="edge78" class="edge">
<title>91&#45;&gt;9</title>
<path fill="none" stroke="black" stroke-width="3" d="M927.82,-48.95C934.18,-58.01 941.56,-68.48 948.3,-77.94 955.35,-87.82 955.65,-91.56 964.31,-100.07 991.94,-127.24 1028.64,-151.93 1055.71,-168.47"/>
<polygon fill="black" stroke="black" stroke-width="3" points="1053.87,-171.45 1064.25,-173.57 1057.46,-165.44 1053.87,-171.45"/>
</g>
<!-- 84&#45;&gt;4 -->
<g id="edge81" class="edge">
<title>84&#45;&gt;4</title>
<path fill="none" stroke="black" stroke-width="3" d="M766.17,-221.01C763.38,-231.9 760.08,-244.75 756.99,-256.77"/>
<polygon fill="black" stroke="black" stroke-width="3" points="753.61,-255.87 754.51,-266.42 760.39,-257.61 753.61,-255.87"/>
</g>
<!-- 84&#45;&gt;8 -->
<g id="edge80" class="edge">
<title>84&#45;&gt;8</title>
<path fill="none" stroke="black" stroke-width="3" d="M755.6,-217.15C722.98,-259.56 652.34,-351.38 614.22,-400.93"/>
<polygon fill="black" stroke="black" stroke-width="3" points="611.59,-398.61 608.26,-408.67 617.14,-402.88 611.59,-398.61"/>
</g>
<!-- 26&#45;&gt;2 -->
<g id="edge90" class="edge">
<title>26&#45;&gt;2</title>
<path fill="none" stroke="black" stroke-width="3" d="M606.19,-605.77C589.27,-608.93 567.7,-612.64 548.35,-615 512.88,-619.33 472.41,-622.09 442.7,-623.71"/>
<polygon fill="black" stroke="black" stroke-width="3" points="442.58,-620.21 432.77,-624.22 442.94,-627.2 442.58,-620.21"/>
</g>
<!-- 26&#45;&gt;6 -->
<g id="edge91" class="edge">
<title>26&#45;&gt;6</title>
<path fill="none" stroke="black" stroke-width="3" d="M660.99,-615.54C673.32,-623.06 688.56,-631.94 702.71,-639.03 741.91,-658.67 788.39,-677.63 820.7,-690.17"/>
<polygon fill="black" stroke="black" stroke-width="3" points="819.22,-693.35 829.81,-693.66 821.73,-686.81 819.22,-693.35"/>
</g>
</g>
</svg>
